<?xml version="1.0" encoding="UTF-8"?>
<svg id="Layer_2" data-name="Layer 2" xmlns="http://www.w3.org/2000/svg" viewBox="0 0 55 55">
  <defs>
    <style>
      .cls-1 {
        fill: #231f20;
      }
    </style>
  </defs>
  <g id="Layer_1-2" data-name="Layer 1">
    <g>
      <path class="cls-1" d="m21.07,21.86c1.18-6.6,2.95-13.09,5.27-19.37,3.16,6.28,5.58,12.93,7.2,19.78.07.32.16.65.41.86.25.2.6.22.92.23,5.84.16,11.68.31,17.52.47-5.82,2.36-11.41,5.31-16.65,8.78-.25.16-.51.36-.58.65-.06.27.08.54.21.79,3.03,5.65,5.58,11.55,7.62,17.63-5.54-4.08-10.79-8.58-15.67-13.44-3.81,4.87-8.24,9.26-13.13,13.04,2.55-5.31,5.1-10.62,7.66-15.93-6.75-2.63-13.25-5.93-19.36-9.83,5.95-.71,11.91-1.41,17.86-2.12"/>
      <path class="cls-1" d="m23.48,22.52c1.2-6.6,2.96-13.07,5.27-19.37l-4.57.6c1.55,3.09,2.92,6.26,4.08,9.51.59,1.65,1.14,3.33,1.63,5.01s.78,3.36,1.31,4.97c.66,1.98,2.21,2.55,4.14,2.62s3.89.1,5.84.16c3.73.1,7.46.2,11.19.3l-.66-4.91c-3.32,1.36-6.58,2.85-9.75,4.55-1.62.87-3.22,1.79-4.78,2.75-1.36.83-3.32,1.71-4.13,3.14-1.08,1.91.37,3.84,1.23,5.52s1.6,3.22,2.34,4.86c1.49,3.29,2.79,6.67,3.94,10.09l3.67-2.82c-5.37-3.97-10.42-8.35-15.16-13.05-.88-.87-2.69-1.07-3.54,0-3.84,4.87-8.24,9.24-13.13,13.04l3.93,3.03c2.55-5.31,5.1-10.62,7.66-15.93.75-1.57.09-3.05-1.49-3.67-6.55-2.57-12.82-5.8-18.76-9.58l-1.26,4.66c5.95-.71,11.91-1.41,17.86-2.12,1.34-.16,2.5-1.04,2.5-2.5,0-1.23-1.15-2.66-2.5-2.5-5.95.71-11.91,1.41-17.86,2.12-2.38.28-3.5,3.23-1.26,4.66,6.31,4.01,12.99,7.36,19.95,10.08l-1.49-3.67c-2.55,5.31-5.1,10.62-7.66,15.93-1.28,2.66,1.7,4.76,3.93,3.03,4.89-3.8,9.3-8.17,13.13-13.04h-3.54c5.05,5,10.46,9.6,16.17,13.83,1.75,1.3,4.34-.85,3.67-2.82-1.09-3.24-2.33-6.43-3.69-9.57s-2.97-6-4.36-9.04l.34,1.26-.03-.4-.34,1.26c-.39.29-.43.33-.13.12.13-.08.26-.17.38-.25.32-.21.64-.42.97-.62.65-.41,1.3-.81,1.96-1.21,1.38-.83,2.78-1.62,4.2-2.38,2.72-1.45,5.5-2.77,8.35-3.94,1.15-.47,1.99-1.42,1.79-2.74-.19-1.24-1.18-2.13-2.46-2.17-3.41-.09-6.81-.18-10.22-.28-1.7-.05-3.41-.09-5.11-.14-.41-.01-.81-.02-1.22-.03-.54-.01-1.48-.38-.43.35.97.67.47.06.33-.52-.11-.45-.22-.89-.34-1.33-1.65-6.27-3.99-12.35-6.89-18.15-1.04-2.09-3.89-1.26-4.57.6-2.31,6.3-4.07,12.77-5.27,19.37-.24,1.33.36,2.7,1.75,3.08,1.21.33,2.83-.41,3.08-1.75h0Z"/>
    </g>
  </g>
</svg>