<svg version="1.1" xmlns="http://www.w3.org/2000/svg" xmlns:xlink="http://www.w3.org/1999/xlink" width="1181" height="420" viewBox="0,0,1181,420"><g transform="translate(388.9,8.4) scale(3.15,3.15)"><g id="wick_project_bg" fill-opacity="0" fill="#ffffff" fill-rule="nonzero" stroke="none" stroke-width="1" stroke-linecap="butt" stroke-linejoin="miter" stroke-miterlimit="10" stroke-dasharray="" stroke-dashoffset="0" font-family="none" font-weight="none" font-size="none" text-anchor="none" style="mix-blend-mode: normal"><rect x="0" y="0" width="128" height="128"/></g><g data-paper-data="{&quot;wickUUID&quot;:&quot;8ece16e5-c15e-4f82-b716-d8f3fcb67119&quot;,&quot;wickType&quot;:&quot;clipsandpaths&quot;}" fill="#000000" fill-rule="evenodd" stroke="none" stroke-width="1" stroke-linecap="butt" stroke-linejoin="miter" stroke-miterlimit="10" stroke-dasharray="" stroke-dashoffset="0" font-family="none" font-weight="none" font-size="none" text-anchor="none" style="mix-blend-mode: normal"><path d="M23.85537,100.98787c-0.74733,0.83 -3.30973,6.23709 -3.30973,6.98176c0,0.492 1.28578,1.63878 1.87711,1.45945c1.409,-0.42733 9.70302,-4.69306 9.70302,-4.95306c0,-0.56867 -5.23692,-4.43904 -6.22959,-4.43904c-0.25267,0 -1.75181,0.63022 -2.04081,0.95089z" data-paper-data="{&quot;wickUUID&quot;:&quot;33141269-4742-406d-b47b-06155fada096&quot;,&quot;wickType&quot;:&quot;path&quot;}"/><path d="M91.87753,19.98546c-6.94667,5.233 -15.61901,13.13151 -27.77134,25.29384c-9.009,9.01633 -13.16458,12.94084 -14.84625,14.02084c-2.62933,1.68833 -3.57226,2.63399 -6.44559,6.46166c-1.10833,1.476 -3.17638,3.86986 -4.57071,5.29153c-1.39433,1.42167 -2.50738,3.85363 -2.50738,4.00163c0,0.35967 17.72212,13.63777 18.94745,14.19544c0.91267,0.41533 2.12358,0.20837 3.05158,-0.89063c0.53733,-0.63633 3.58681,-5.02229 6.73714,-9.69696c9.35467,-13.88 17.95814,-25.39338 23.89847,-31.98105c6.60567,-7.32533 15.74375,-18.28062 16.60608,-19.90762c0.32567,-0.61467 0.17549,-1.98822 -0.54618,-2.84555c-1.36233,-1.61933 -7.35596,-6.57392 -7.92496,-6.57392c-0.28567,0 -2.82864,1.27512 -4.62831,2.63079z" data-paper-data="{&quot;wickUUID&quot;:&quot;38c729f7-a404-4201-9acc-ffa42b4bbec1&quot;,&quot;wickType&quot;:&quot;path&quot;}"/><path d="M92.82237,8.59005c-2.107,1.204 -5.115,3.257 -6.684,4.563c-1.569,1.305 -5.504,4.529 -8.744,7.164c-5.662,4.606 -12.314,11.044 -24.636,23.843c-3.168,3.292 -6.851,6.666 -8.183,7.499c-1.333,0.833 -4.665,4.092 -7.405,7.242c-2.74,3.151 -6.844,7.356 -9.12,9.345c-3.33,2.911 -4.138,4.164 -4.138,6.421c0,3.114 3.211,6.694 8.905,9.928c4.143,2.353 13.286,9.406 16.74,12.914c1.467,1.489 3.703,2.956 4.969,3.259c3.479,0.833 9.346,-4.455 15.331,-13.817c8.988,-14.062 19.698,-28.566 26.031,-35.254c8.203,-8.662 21.236,-25.132 21.236,-26.834c0,-1.941 -17.44,-18.495 -19.463,-18.474c-0.555,0.006 -2.732,0.996 -4.839,2.201zM100.88637,21.26205c2.223,1.958 4.042,3.968 4.042,4.467c0,0.925 -8.419,11.121 -17.858,21.629c-5.877,6.543 -16.974,21.629 -24.805,33.721c-2.869,4.432 -5.715,8.054 -6.322,8.049c-0.608,-0.005 -3.457,-1.808 -6.332,-4.006c-2.875,-2.199 -7.089,-5.368 -9.365,-7.042c-2.276,-1.674 -4.138,-3.326 -4.138,-3.671c0,-0.344 1.215,-1.778 2.701,-3.185c1.485,-1.407 3.855,-4.224 5.267,-6.26c1.413,-2.035 3.686,-4.279 5.052,-4.985c2.329,-1.205 9.963,-8.524 22.382,-21.46c6.746,-7.026 22.866,-20.513 24.802,-20.75c0.292,-0.036 2.35,1.536 4.574,3.493z" data-paper-data="{&quot;wickUUID&quot;:&quot;69fa8606-2353-4386-aba3-bad580c12dee&quot;,&quot;wickType&quot;:&quot;path&quot;}"/><path d="M19.43808,90.17212c-1.99,1.596 -7.312,13.901 -9.093,21.026c-1.454,5.814 -1.447,5.996 0.285,8.276c2.494,3.282 5.979,2.848 15.902,-1.981c6.117,-2.977 9.157,-3.964 12.216,-3.964c5.824,0 9.992,-2.921 9.992,-7.003c0,-2.805 -0.485,-3.335 -6.969,-7.608c-12.376,-8.157 -19.559,-10.97 -22.333,-8.746zM29.06308,101.98712c1.473,0.838 2.681,1.789 2.684,2.114c0.007,0.739 -9.644,5.202 -10.545,4.877c-1.06,-0.383 2.815,-8.516 4.058,-8.516c0.618,0 2.33,0.686 3.803,1.525z" data-paper-data="{&quot;wickUUID&quot;:&quot;6a30823e-a13d-4293-8e5d-5a98a5f0a1e3&quot;,&quot;wickType&quot;:&quot;path&quot;}"/></g><g fill="none" fill-rule="nonzero" stroke="none" stroke-width="1" stroke-linecap="butt" stroke-linejoin="miter" stroke-miterlimit="10" stroke-dasharray="" stroke-dashoffset="0" font-family="sans-serif" font-weight="normal" font-size="12" text-anchor="start" style="mix-blend-mode: normal"/><g id="wick_project_gui" fill="none" fill-rule="nonzero" stroke="none" stroke-width="1" stroke-linecap="butt" stroke-linejoin="miter" stroke-miterlimit="10" stroke-dasharray="" stroke-dashoffset="0" font-family="sans-serif" font-weight="normal" font-size="12" text-anchor="start" style="mix-blend-mode: normal"/></g></svg>